# xmcd
#
# Track frame offsets: 
#        150
#        20412
#        31745
#        43562
#        62697
#        69402
#        76770
#        91837
#        106595
#        119057
#        127832
#        160937
#        177712
#        209653
#
# Disc length: 2991 seconds
#
# Revision: 0
# Processed by: cddbd v1.5.2PL0 Copyright (c) Steve Scherf et al.
# Submitted via: ExactAudioCopy v0.99pb4
#
DISCID=b20bad0e
DTITLE=Willie Nelson - Rainbow Connection
DYEAR=2001
DGENRE=Country
TTITLE0=Rainbow Connection
TTITLE1=I'm Looking over a Four-Leaf Clover
TTITLE2=Ol' Blue
TTITLE3=Wise Old Me
TTITLE4=Won't You Ride in My Little Red Wagon
TTITLE5=Playmate
TTITLE6=I'm My Own Grandpaw
TTITLE7=Rock Me to Sleep
TTITLE8=Playin' Dominoes and Shootin' Dice
TTITLE9=Wouldn't Have It Any Other Way
TTITLE10=Outskirts of Town
TTITLE11=Just Dropped In (To See What Condition My Condition Was In)
TTITLE12=The Thirty-Third of August
TTITLE13=Data Track
EXTD=
EXTT0=
EXTT1=
EXTT2=
EXTT3=
EXTT4=
EXTT5=
EXTT6=
EXTT7=
EXTT8=
EXTT9=
EXTT10=
EXTT11=
EXTT12=
EXTT13=
PLAYORDER=
